<svg xmlns="http://www.w3.org/2000/svg" width="200" height="153.541" viewBox="0 0 200 153.541"><path d="M44.291,264.865a8.082,8.082,0,1,0,0,16.165h.253L12.873,334.693a3.909,3.909,0,0,0-.377.88h-.325a36.235,36.235,0,1,0,72.47,0h-.324a3.913,3.913,0,0,0-.378-.88L52.274,281.03h52.969V404.552H62.3a6.927,6.927,0,1,0,0,13.854h99.74a6.927,6.927,0,1,0,0-13.854H119.1V281.03h52.976L140.4,334.693a3.908,3.908,0,0,0-.377.88H139.7a36.235,36.235,0,0,0,72.47,0h-.324a3.91,3.91,0,0,0-.378-.88L179.8,281.03h.246a8.082,8.082,0,1,0,0-16.165Zm4.116,25.415,25.045,42.44H23.366Zm127.529,0,25.047,42.44H150.9Z" transform="translate(-12.171 -264.865)"/></svg>